<svg id="visual" viewBox="0 0 900 600" width="900" height="600" xmlns="http://www.w3.org/2000/svg" xmlns:xlink="http://www.w3.org/1999/xlink" version="1.1">



<path d="M0 482L18.8 462.8C37.7 443.7 75.3 405.3 112.8 389.5C150.3 373.7 187.7 380.3 225.2 394.2C262.7 408 300.3 429 337.8 440C375.3 451 412.7 452 450.2 432.8C487.7 413.7 525.3 374.3 562.8 377.8C600.3 381.3 637.7 427.7 675.2 457.3C712.7 487 750.3 500 787.8 490.3C825.3 480.7 862.7 448.3 881.3 432.2L900 416L900 601L881.3 601C862.7 601 825.3 601 787.8 601C750.3 601 712.7 601 675.2 601C637.7 601 600.3 601 562.8 601C525.3 601 487.7 601 450.2 601C412.7 601 375.3 601 337.8 601C300.3 601 262.7 601 225.2 601C187.7 601 150.3 601 112.8 601C75.3 601 37.7 601 18.8 601L0 601Z" 






fill="#f3f4f6" stroke-linecap="round" stroke-linejoin="miter"></path></svg>